<?xml version="1.0" encoding="utf-8"?>
<!-- Svg Vector Icons : http://www.onlinewebfonts.com/icon -->
<!DOCTYPE svg PUBLIC "-//W3C//DTD SVG 1.1//EN" "http://www.w3.org/Graphics/SVG/1.1/DTD/svg11.dtd">
<svg version="1.1" xmlns="http://www.w3.org/2000/svg" xmlns:xlink="http://www.w3.org/1999/xlink" x="0px" y="0px" viewBox="0 0 1000 1000" enable-background="new 0 0 1000 1000" xml:space="preserve">
<metadata> Svg Vector Icons : http://www.onlinewebfonts.com/icon </metadata>
<g><path d="M730.2,520.9c-129.3,0-234.6,105.2-234.6,234.6c0,129.3,105.2,234.6,234.6,234.6c129.3,0,234.6-105.2,234.6-234.6C964.8,626.1,859.5,520.9,730.2,520.9L730.2,520.9z M730.2,935c-99,0-179.6-80.6-179.6-179.6c0-99,80.6-179.6,179.6-179.6c99,0,179.6,80.6,179.6,179.6C909.8,854.5,829.2,935,730.2,935L730.2,935z"/><path d="M451.6,919.3c-65-0.8-121.5-6.9-167.9-18.5c-45.4-11.4-82.4-28.2-110.1-50c-25.8-20.3-44.5-45.5-57.1-77.1c-13.3-33.2-20.1-74.4-20.1-122.6c0-37.8,7.3-77.1,21.6-116.7c14.1-39.1,34.5-76.9,60.5-112.4c25.9-35.3,56.1-66.4,89.7-92.4c30.4-23.5,62.3-41.9,95-54.6l1-0.4l202.7,0.4c32.6,12.7,64.5,31,94.9,54.5c33.6,26,63.8,57.1,89.7,92.4c7.5,10.2,14.5,20.7,21,31.2c29.4,5.2,57.3,14.6,83.2,27.4c-54-120.1-158.5-225.4-278-267.1l-223.4-0.3C178.3,274.4,35.2,470.8,35.2,651.1c0,227.8,132.5,329.5,429.7,329.5c11.8,0,23.3-0.2,34.6-0.5C481.1,961.9,465,941.5,451.6,919.3L451.6,919.3z"/><path d="M286.5,69.3l-0.3,0.9l70.7,106.2H573l71.1-105.7l-0.9-4.3l0.4-1.8c0.4-1.8,0.8-3.5,0.8-5.1c0-11.5-5.6-21.5-14.3-25.7l-2-1l-0.6-1.5C614.7,28.3,536.8,10,467,10h-2c-69.1,0.3-154.1,19.5-162.6,21.5l-2.6,2.3c-8.8,4.1-14.4,14.2-14.4,25.7c0,1.6,0.4,3.2,1,6L286.5,69.3L286.5,69.3z M375.9,79.5c34.3-5.5,64.4-8.3,89.4-8.4h1.7c25.3,0,54.7,2.7,87.4,7.9l9.1,1.5l-23.2,34.8H389.7L366.8,81L375.9,79.5L375.9,79.5z"/><path d="M461.4,734.8c0-20,2.2-39.6,6.3-58.4c-5.8,2.1-12.7,3.2-20.7,3.2c-32.4,0-51.5-17.6-57.3-52.6l-62.2,16.3c12.6,55.7,45.2,86.4,97.8,91.8v47.9h40.3v-0.6C462.8,766.8,461.4,750.9,461.4,734.8z"/><path d="M381,571.7c12.4,7.6,29.7,15.1,51.9,22.8c24.6,8.7,40.5,15.9,47.7,21.6c2.2,1.7,4,3.7,5.5,5.9c10.8-23.6,24.9-45.3,41.7-64.6c-3-2.2-6.1-4.3-9.3-6.1c-13.6-7.7-32.4-16-56.2-24.8c-21.8-8-36-14.7-42.6-20.1c-6.6-5.5-10-13.2-10-23.3c0-10,3.5-18.4,10.4-25.4c6.8-7,16-10.4,27.3-10.4c22.7,0,39.4,15.6,50.1,46.8l55.5-22.8c-13.3-45.5-42.5-71-87.4-76.4v-37.1h-40.3V395c-29.8,4.2-51.6,15.7-65.5,34.5c-13.8,18.8-20.8,40-20.8,63.6c0,17.9,3.9,33.7,11.7,47.2C358.4,553.8,368.5,564.3,381,571.7z"/><path d="M649.9,705.4h22.3V729c0,3.4,2.7,6.1,6.1,6.1c3.4,0,6.1-2.7,6.1-6.1v-23.6h22.1c3.4,0,6.1-2.7,6.1-6.1c0-3.4-2.7-6.1-6.1-6.1h-22.1v-20.8c0-3.4-2.7-6.1-6.1-6.1c-3.4,0-6.1,2.7-6.1,6.1v20.8h-22.3c-3.4,0-6.1,2.7-6.1,6.1C643.8,702.7,646.5,705.4,649.9,705.4L649.9,705.4L649.9,705.4z"/><path d="M833.4,641.3l-0.4,0H629.3l-0.4,0c-6.3,0.6-11.1,5.8-11.1,12v203c0,6.5,5.3,11.8,11.8,11.8h203c6.5,0,11.8-5.3,11.8-11.8v-203C844.5,647.1,839.7,641.9,833.4,641.3L833.4,641.3L833.4,641.3z M829.5,746.4h-90.9v-90.2h90.9V746.4L829.5,746.4L829.5,746.4z M723.6,656.2v90.2h-90.9v-90.2H723.6L723.6,656.2L723.6,656.2z M632.8,761.4h90.9v91.8h-90.9V761.4L632.8,761.4L632.8,761.4z M738.6,853.2v-91.8h90.9v91.8H738.6L738.6,853.2L738.6,853.2z"/><path d="M755.5,705.4h56.7c3.4,0,6.1-2.7,6.1-6.1c0-3.4-2.7-6.1-6.1-6.1h-56.7c-3.4,0-6.1,2.7-6.1,6.1C749.4,702.7,752.2,705.4,755.5,705.4L755.5,705.4L755.5,705.4z"/><path d="M703.1,823.5l-16.7-16.7l15.7-15.7c2.4-2.4,2.4-6.3,0-8.7c-2.4-2.4-6.3-2.4-8.7,0l-15.7,15.7L663,783.4c-2.4-2.4-6.3-2.4-8.7,0c-2.4,2.4-2.4,6.3,0,8.7l14.7,14.7l-15.8,15.8c-2.4,2.4-2.4,6.3,0,8.7c2.4,2.4,6.3,2.4,8.7,0l15.8-15.8l16.7,16.7c2.4,2.4,6.3,2.4,8.7,0C705.5,829.8,705.5,825.9,703.1,823.5L703.1,823.5L703.1,823.5z"/><path d="M812.3,784.4h-56.7c-3.4,0-6.1,2.7-6.1,6.1c0,3.4,2.7,6.1,6.1,6.1h56.7c3.4,0,6.1-2.7,6.1-6.1C818.4,787.2,815.6,784.4,812.3,784.4L812.3,784.4L812.3,784.4z"/><path d="M812.3,817.8h-56.7c-3.4,0-6.1,2.7-6.1,6.1c0,3.4,2.7,6.1,6.1,6.1h56.7c3.4,0,6.1-2.7,6.1-6.1C818.4,820.5,815.6,817.8,812.3,817.8L812.3,817.8L812.3,817.8z"/></g>
</svg>